HIERARCHY
ROOT joint_Root
{
	OFFSET 0.0 0.0 0.0
	CHANNELS 6 Xposition Yposition Zposition Zrotation Xrotation Yrotation 
	JOINT Hips
	{
		OFFSET -0.726466 93.3139 -2.00062
		CHANNELS 6 Xposition Yposition Zposition Zrotation Xrotation Yrotation 
		JOINT Spine
		{
			OFFSET 15.7357 0.0 0.0
			CHANNELS 6 Xposition Yposition Zposition Zrotation Xrotation Yrotation 
			JOINT Chest
			{
				OFFSET 8.98455 -0.406207 0.0
				CHANNELS 6 Xposition Yposition Zposition Zrotation Xrotation Yrotation 
				JOINT Neck
				{
					OFFSET 16.3773 0.0 0.0
					CHANNELS 6 Xposition Yposition Zposition Zrotation Xrotation Yrotation 
					JOINT Head
					{
						OFFSET 6.45672 0.0 0.0
						CHANNELS 6 Xposition Yposition Zposition Zrotation Xrotation Yrotation 
						End Site
						{
							OFFSET 0.0 0.0 0.0
						}
					}
				}
				JOINT Shoulder_L
				{
					OFFSET 12.9942 -0.242716 4.98039
					CHANNELS 6 Xposition Yposition Zposition Zrotation Xrotation Yrotation 
					JOINT UpperArm_L
					{
						OFFSET 5.34809 0.0 0.0
						CHANNELS 6 Xposition Yposition Zposition Zrotation Xrotation Yrotation 
						JOINT LowerArm_L
						{
							OFFSET 24.3286 1.87007e-05 0.0
							CHANNELS 6 Xposition Yposition Zposition Zrotation Xrotation Yrotation 
							JOINT Hand_L
							{
								OFFSET 22.2916 0.0 0.0
								CHANNELS 6 Xposition Yposition Zposition Zrotation Xrotation Yrotation 
								End Site
								{
									OFFSET 0.0 0.0 0.0
								}
							}
						}
					}
				}
				JOINT Shoulder_R
				{
					OFFSET 12.9945 -0.242716 -4.98039
					CHANNELS 6 Xposition Yposition Zposition Zrotation Xrotation Yrotation 
					JOINT UpperArm_R
					{
						OFFSET -5.34813 0.0 0.0
						CHANNELS 6 Xposition Yposition Zposition Zrotation Xrotation Yrotation 
						JOINT LowerArm_R
						{
							OFFSET -24.3289 0.000322201 0.0
							CHANNELS 6 Xposition Yposition Zposition Zrotation Xrotation Yrotation 
							JOINT Hand_R
							{
								OFFSET -22.2915 -0.000108084 0.0
								CHANNELS 6 Xposition Yposition Zposition Zrotation Xrotation Yrotation 
								End Site
								{
									OFFSET 0.0 0.0 0.0
								}
							}
						}
					}
				}
			}
		}
		JOINT UpperLeg_L
		{
			OFFSET -2.19248 -6.46944 0.0
			CHANNELS 6 Xposition Yposition Zposition Zrotation Xrotation Yrotation 
			JOINT LowerLeg_L
			{
				OFFSET 39.0811 0.0 -1.23785e-05
				CHANNELS 6 Xposition Yposition Zposition Zrotation Xrotation Yrotation 
				JOINT Foot_L
				{
					OFFSET 40.9854 0.0 -1.26872e-05
					CHANNELS 6 Xposition Yposition Zposition Zrotation Xrotation Yrotation 
					JOINT Toes_L
					{
						OFFSET 11.7543 0.0 0.0
						CHANNELS 6 Xposition Yposition Zposition Zrotation Xrotation Yrotation 
						End Site
						{
							OFFSET 0.0 0.0 0.0
						}
					}
				}
			}
		}
		JOINT UpperLeg_R
		{
			OFFSET -2.19251 6.46944 0.0
			CHANNELS 6 Xposition Yposition Zposition Zrotation Xrotation Yrotation 
			JOINT LowerLeg_R
			{
				OFFSET -39.0811 -0.00228153 -0.0401928
				CHANNELS 6 Xposition Yposition Zposition Zrotation Xrotation Yrotation 
				JOINT Foot_R
				{
					OFFSET -40.9854 0.0 0.0
					CHANNELS 6 Xposition Yposition Zposition Zrotation Xrotation Yrotation 
					JOINT Toes_R
					{
						OFFSET -11.7543 0.0 0.0
						CHANNELS 6 Xposition Yposition Zposition Zrotation Xrotation Yrotation 
						End Site
						{
							OFFSET 0.0 0.0 0.0
						}
					}
				}
			}
		}
	}
}
MOTION
Frames:	9
Frame Time:	0.0333333
0.000000 0.000000 0.000000 0.000000 0.000000 -0.000000 140.061000 91.310500 -199.714000 85.325100 4.309520 1.590730 15.735700 0.000005 -0.000001 70.070500 80.383900 -68.687700 8.984550 -0.406207 -0.000000 10.443600 -6.479170 3.358920 16.377300 -0.000001 -0.000001 8.024530 -1.337640 0.020291 6.456720 -0.000001 -0.000000 4.083570 3.677090 0.731512 12.994200 -0.242716 4.980390 -88.215800 -5.396440 -71.673700 5.348090 -0.000007 -0.000001 -42.017100 21.602800 -41.631400 24.328600 0.000019 0.000005 -0.034508 -0.023043 -56.596800 22.291600 -0.000001 0.000005 7.508790 5.643680 -14.439400 12.994500 -0.242716 -4.980390 89.599200 0.797216 -63.307000 -5.348130 -0.000001 -0.000004 -65.035100 27.914900 1.526360 -24.328900 0.000322 -0.000009 2.684390 4.808710 -29.229600 -22.291500 -0.000108 -0.000004 1.691520 5.519330 -7.333810 -2.192480 -6.469440 -0.000000 -174.355000 -12.309900 0.925262 39.081100 -0.000007 -0.000012 -0.011477 0.024164 25.407400 40.985400 -0.000006 -0.000013 3.528780 0.770899 -73.040500 11.754300 -0.000000 0.000003 -1.223890 -1.558250 -16.019600 -2.192510 6.469440 -0.000001 -177.041000 23.070500 154.150000 -39.081100 -0.002282 -0.040193 0.036066 -0.059421 28.870300 -40.985400 0.000008 0.000006 -3.684330 -1.031790 -55.815900 -11.754300 -0.000006 -0.000006 -0.023394 -0.185409 -24.155200
0.000000 0.000000 0.000000 0.000000 0.000000 -0.000000 140.038000 90.564500 -197.310000 86.097700 4.765240 1.358560 15.735700 0.000005 -0.000001 69.106900 80.241500 -67.817700 8.984550 -0.406207 -0.000000 10.603200 -6.880370 3.218430 16.377300 -0.000001 -0.000001 7.955220 -1.714400 0.019777 6.456720 -0.000001 -0.000000 3.888910 3.486970 0.741823 12.994200 -0.242716 4.980390 -88.169200 -5.592140 -71.839600 5.348090 -0.000007 -0.000001 -38.951600 20.320400 -43.930400 24.328600 0.000019 0.000005 0.315527 0.189772 -58.965000 22.291600 -0.000001 0.000005 7.654220 5.644210 -14.484700 12.994500 -0.242716 -4.980390 89.766100 0.456050 -62.843900 -5.348130 -0.000001 -0.000004 -64.947700 27.672400 3.679350 -24.328900 0.000322 -0.000009 2.286580 3.768540 -31.296100 -22.291500 -0.000108 -0.000004 1.288050 5.525020 -7.577790 -2.192480 -6.469440 -0.000000 -174.652000 -11.874700 2.389380 39.081100 -0.000007 -0.000012 -0.021257 0.044136 25.716500 40.985400 -0.000006 -0.000013 3.113140 0.910951 -74.911800 11.754300 -0.000000 0.000003 -1.645250 -2.108360 -16.508500 -2.192510 6.469440 -0.000001 -176.021000 24.035000 153.167000 -39.081100 -0.002282 -0.040193 0.015518 -0.033245 20.146300 -40.985400 0.000008 0.000006 -4.417130 0.718134 -55.800900 -11.754300 -0.000006 -0.000006 -0.023504 -0.185978 -24.178700
0.000000 0.000000 0.000000 0.000000 0.000000 -0.000000 139.946000 89.706300 -194.617000 86.933200 5.091380 1.085710 15.735700 0.000005 -0.000001 68.337700 80.108100 -67.145200 8.984550 -0.406207 -0.000000 10.760000 -7.220020 3.067060 16.377300 -0.000001 -0.000001 8.007520 -1.910790 0.001953 6.456720 -0.000001 -0.000000 3.584220 3.338600 0.627000 12.994200 -0.242716 4.980390 -88.151500 -5.641570 -71.824800 5.348090 -0.000007 -0.000001 -36.728200 19.376400 -45.154900 24.328600 0.000019 0.000005 0.353756 0.196416 -60.953700 22.291600 -0.000001 0.000005 7.722820 5.644810 -14.538400 12.994500 -0.242716 -4.980390 89.860700 0.267874 -62.530100 -5.348130 -0.000001 -0.000004 -64.626800 27.554300 5.122380 -24.328900 0.000322 -0.000009 1.980520 3.052200 -33.016100 -22.291500 -0.000108 -0.000004 1.030210 5.528130 -7.713710 -2.192480 -6.469440 -0.000000 -174.997000 -11.174800 4.092190 39.081100 -0.000007 -0.000012 -0.033069 0.068126 25.892600 40.985400 -0.000006 -0.000013 2.528870 0.671111 -76.734000 11.754300 -0.000000 0.000003 -1.681170 -2.165390 -17.442500 -2.192510 6.469440 -0.000001 -174.778000 25.525300 151.982000 -39.081100 -0.002282 -0.040193 0.008275 -0.020944 13.277500 -40.985400 0.000008 0.000006 -6.712760 2.684760 -55.112600 -11.754300 -0.000006 -0.000006 -0.023890 -0.187952 -24.260300
0.000000 0.000000 0.000000 0.000000 0.000000 -0.000000 139.725000 88.775800 -191.571000 87.537100 5.286040 0.731600 15.735700 0.000005 -0.000001 67.590000 80.006200 -66.359700 8.984550 -0.406207 -0.000000 10.863600 -7.531850 3.179140 16.377300 -0.000001 -0.000001 8.105740 -1.972360 -0.088808 6.456720 -0.000001 -0.000000 3.270240 3.262530 0.301355 12.994200 -0.242716 4.980390 -88.187100 -5.473330 -71.641900 5.348090 -0.000007 -0.000001 -35.453100 19.007700 -45.220800 24.328600 0.000019 0.000005 0.395213 0.205283 -62.541900 22.291600 -0.000001 0.000005 7.521080 5.644100 -14.475100 12.994500 -0.242716 -4.980390 89.932900 0.128595 -62.452800 -5.348130 -0.000001 -0.000004 -64.031600 27.550600 5.761660 -24.328900 0.000322 -0.000009 1.973500 2.891840 -34.348700 -22.291500 -0.000108 -0.000004 0.735264 5.530480 -7.816400 -2.192480 -6.469440 -0.000000 -174.833000 -10.873900 6.019220 39.081100 -0.000007 -0.000012 -0.047407 0.097391 25.955700 40.985400 -0.000006 -0.000013 1.670320 0.921212 -78.336500 11.754300 -0.000000 0.000003 -1.613530 -2.061070 -18.514900 -2.192510 6.469440 -0.000001 -172.996000 27.242100 149.852000 -39.081100 -0.002282 -0.040193 0.007770 -0.024206 10.375700 -40.985400 0.000008 0.000006 -9.916330 2.876530 -53.612400 -11.754300 -0.000006 -0.000006 -0.024320 -0.190137 -24.350500
0.000000 0.000000 0.000000 0.000000 0.000000 -0.000000 139.284000 87.813800 -188.091000 87.971400 5.917080 0.054984 15.735700 0.000005 -0.000001 65.869100 80.028000 -64.469800 8.984550 -0.406207 -0.000000 10.613100 -8.062660 3.550740 16.377300 -0.000001 -0.000001 8.180090 -2.068890 -0.140780 6.456720 -0.000001 -0.000000 3.250920 3.169780 -0.008504 12.994200 -0.242716 4.980390 -88.229900 -5.294250 -71.482400 5.348090 -0.000007 -0.000001 -35.260800 19.564000 -44.106800 24.328600 0.000019 0.000005 0.508414 0.251004 -63.727200 22.291600 -0.000001 0.000005 7.162670 5.643640 -14.436000 12.994500 -0.242716 -4.980390 89.961200 0.073768 -62.293300 -5.348130 -0.000001 -0.000004 -63.086800 28.096300 5.752690 -24.328900 0.000322 -0.000009 1.814620 2.566480 -35.297200 -22.291500 -0.000108 -0.000004 0.584719 5.534290 -7.985800 -2.192480 -6.469440 -0.000000 -174.168000 -10.362000 7.815500 39.081100 -0.000007 -0.000012 -0.063988 0.130996 26.034100 40.985400 -0.000006 -0.000013 0.655277 1.894370 -79.467300 11.754300 -0.000000 0.000003 -1.462590 -1.832640 -19.195500 -2.192510 6.469440 -0.000001 -171.402000 28.162000 146.879000 -39.081100 -0.002282 -0.040193 0.005349 -0.009221 12.322800 -40.985400 0.000008 0.000006 -10.509300 2.070880 -54.566200 -11.754300 -0.000006 -0.000006 -0.024542 -0.191258 -24.396900
0.000000 0.000000 0.000000 0.000000 0.000000 -0.000000 138.564000 86.969300 -184.403000 87.689900 7.019820 -1.427390 15.735700 0.000005 -0.000001 63.610400 80.339400 -61.714000 8.984550 -0.406207 -0.000000 9.765850 -8.503850 4.523260 16.377300 -0.000001 -0.000001 8.436740 -2.452670 -0.009062 6.456720 -0.000001 -0.000000 3.095730 2.944840 -0.162869 12.994200 -0.242716 4.980390 -88.416200 -4.807900 -71.743600 5.348090 -0.000007 -0.000001 -35.564400 20.964200 -42.075600 24.328600 0.000019 0.000005 0.672792 0.322649 -64.378600 22.291600 -0.000001 0.000005 6.945560 5.644670 -14.525800 12.994500 -0.242716 -4.980390 89.810700 0.354798 -61.927000 -5.348130 -0.000001 -0.000004 -61.712800 28.549700 5.300520 -24.328900 0.000322 -0.000009 1.882550 2.587340 -36.074300 -22.291500 -0.000108 -0.000004 0.470752 5.537290 -8.119930 -2.192480 -6.469440 -0.000000 -172.462000 -9.854070 8.452880 39.081100 -0.000007 -0.000012 -0.076962 0.154532 26.475100 40.985400 -0.000006 -0.000013 -0.637314 3.538970 -79.873700 11.754300 -0.000000 0.000003 -1.142710 -1.360860 -19.121900 -2.192510 6.469440 -0.000001 -169.138000 27.389000 142.004000 -39.081100 -0.002282 -0.040193 0.000381 0.008565 18.955700 -40.985400 0.000008 0.000006 -2.303590 1.728080 -53.468000 -11.754300 -0.000006 -0.000006 -0.026750 -0.202163 -24.847900
0.000000 0.000000 0.000000 0.000000 0.000000 -0.000000 137.652000 86.223100 -180.354000 86.953300 8.604500 -2.801010 15.735700 0.000005 -0.000001 61.388300 80.635400 -58.794200 8.984550 -0.406207 -0.000000 8.964600 -8.896400 5.890800 16.377300 -0.000001 -0.000001 8.410360 -3.109770 0.149468 6.456720 -0.000001 -0.000000 2.922380 2.585250 -0.104591 12.994200 -0.242716 4.980390 -88.686000 -4.066590 -72.076000 5.348090 -0.000007 -0.000001 -35.914700 23.169300 -39.733800 24.328600 0.000019 0.000005 0.953318 0.458209 -64.332900 22.291600 -0.000001 0.000005 6.591160 5.644100 -14.474500 12.994500 -0.242716 -4.980390 89.561700 0.807032 -61.492600 -5.348130 -0.000001 -0.000004 -60.397900 28.517000 4.864380 -24.328900 0.000322 -0.000009 1.801640 2.397950 -36.953700 -22.291500 -0.000108 -0.000004 0.631083 5.537980 -8.151040 -2.192480 -6.469440 -0.000000 -169.999000 -8.828360 8.763340 39.081100 -0.000007 -0.000012 -0.083471 0.160416 27.489900 40.985400 -0.000006 -0.000013 -1.938170 5.412480 -79.152800 11.754300 -0.000000 0.000003 -0.012227 -0.119598 -21.452700 -2.192510 6.469440 -0.000001 -168.560000 24.777200 137.855000 -39.081100 -0.002282 -0.040193 0.011488 -0.015967 27.127000 -40.985400 0.000008 0.000006 4.777930 1.287240 -50.025100 -11.754300 -0.000006 -0.000006 -0.030092 -0.217885 -25.499500
0.000000 0.000000 0.000000 0.000000 0.000000 -0.000000 136.685000 85.567600 -175.807000 85.532600 9.641510 -2.691940 15.735700 0.000005 -0.000001 61.799300 80.517400 -58.338600 8.984550 -0.406207 -0.000000 9.310150 -8.867480 7.650420 16.377300 -0.000001 -0.000001 7.805750 -3.392280 0.246898 6.456720 -0.000001 -0.000000 2.624410 2.069450 -0.216663 12.994200 -0.242716 4.980390 -88.902000 -3.406720 -72.123000 5.348090 -0.000007 -0.000001 -37.270300 25.653400 -36.899900 24.328600 0.000019 0.000005 2.207580 1.100730 -63.518600 22.291600 -0.000001 0.000005 5.805320 5.640570 -14.170600 12.994500 -0.242716 -4.980390 89.458100 0.999631 -61.537600 -5.348130 -0.000001 -0.000004 -59.562600 28.120300 3.924170 -24.328900 0.000322 -0.000009 1.406930 1.845860 -37.346800 -22.291500 -0.000108 -0.000004 0.743892 5.538430 -8.171290 -2.192480 -6.469440 -0.000000 -166.647000 -7.566960 10.087700 39.081100 -0.000007 -0.000012 -0.084749 0.150371 29.405700 40.985400 -0.000006 -0.000013 -3.552590 6.979690 -76.713700 11.754300 -0.000000 0.000003 -0.037113 -0.248404 -26.773000 -2.192510 6.469440 -0.000001 -169.986000 20.274100 136.500000 -39.081100 -0.002282 -0.040193 0.033317 -0.041596 35.825600 -40.985400 0.000008 0.000006 4.055380 -4.834110 -50.031200 -11.754300 -0.000006 -0.000006 -0.025157 -0.194343 -24.524400
0.000000 0.000000 0.000000 0.000000 0.000000 -0.000000 135.701000 85.162700 -171.014000 84.262700 10.171200 -1.918270 15.735700 0.000005 -0.000001 62.821900 80.153600 -58.672700 8.984550 -0.406207 -0.000000 10.179100 -8.851020 9.096330 16.377300 -0.000001 -0.000001 7.540060 -3.234270 0.462855 6.456720 -0.000001 -0.000000 1.977400 1.788590 -0.619354 12.994200 -0.242716 4.980390 -89.033900 -2.960900 -71.919100 5.348090 -0.000007 -0.000001 -39.849900 28.014100 -33.376200 24.328600 0.000019 0.000005 3.363130 1.837560 -61.384400 22.291600 -0.000001 0.000005 5.183560 5.637690 -13.935000 12.994500 -0.242716 -4.980390 89.383100 1.170160 -62.199600 -5.348130 -0.000001 -0.000004 -58.799000 28.663000 1.641240 -24.328900 0.000322 -0.000009 0.994770 1.335170 -36.725600 -22.291500 -0.000108 -0.000004 0.632286 5.539410 -8.216100 -2.192480 -6.469440 -0.000000 -163.812000 -6.037680 10.811500 39.081100 -0.000007 -0.000012 -0.058815 0.090232 33.097300 40.985400 -0.000006 -0.000013 -4.768290 7.325940 -71.674100 11.754300 -0.000000 0.000003 -0.092288 -0.425020 -34.279800 -2.192510 6.469440 -0.000001 -169.115000 18.978200 136.815000 -39.081100 -0.002282 -0.040193 0.077457 -0.081859 42.184500 -40.985400 0.000008 0.000006 7.951670 -5.864970 -52.429600 -11.754300 -0.000006 -0.000006 -0.011966 -0.117784 -21.374600
